<?xml version="1.0" standalone="no"?>
<!DOCTYPE svg PUBLIC "-//W3C//DTD SVG 20010904//EN"
 "http://www.w3.org/TR/2001/REC-SVG-20010904/DTD/svg10.dtd">
<svg version="1.0" xmlns="http://www.w3.org/2000/svg"
 width="260.000000pt" height="260.000000pt" viewBox="0 0 260.000000 260.000000"
 preserveAspectRatio="xMidYMid meet">
<metadata>
Created by potrace 1.11, written by Peter Selinger 2001-2013
</metadata>
<g transform="translate(0.000000,260.000000) scale(0.100000,-0.100000)"
fill="#000000" stroke="none">
<path d="M805 2152 c-65 -4 -133 -21 -204 -49 -36 -14 -68 -29 -71 -32 -11
-13 -70 -51 -80 -51 -5 0 -9 -6 -7 -12 1 -7 -6 -12 -15 -12 -10 1 -15 -2 -12
-7 3 -5 -2 -12 -10 -15 -9 -3 -16 -13 -16 -21 0 -8 -4 -12 -8 -9 -4 2 -14 1
-22 -5 -13 -8 -13 -9 -1 -9 12 0 12 -3 3 -12 -10 -10 -15 -10 -23 2 -8 11 -9
8 -5 -12 7 -31 -19 -52 -51 -42 -11 4 -14 3 -7 -3 6 -4 10 -16 9 -25 -2 -11 2
-15 13 -12 14 5 14 4 -1 -6 -9 -6 -14 -16 -11 -22 4 -7 2 -8 -5 -4 -6 4 -9 11
-7 15 3 4 -1 8 -9 8 -13 0 -13 -4 0 -24 11 -17 12 -23 3 -21 -7 2 -13 -6 -13
-16 0 -11 -6 -21 -13 -22 -7 -1 -8 0 -2 3 5 2 7 9 4 15 -3 5 -13 0 -21 -12
-13 -19 -13 -24 2 -47 9 -14 12 -23 7 -19 -6 3 -13 2 -17 -4 -3 -5 0 -10 7
-10 10 0 10 -2 -1 -9 -9 -6 -10 -11 -2 -15 17 -11 3 -26 -16 -19 -12 5 -14 3
-8 -7 6 -9 4 -11 -5 -5 -10 6 -9 11 5 21 16 12 16 13 -3 11 -14 -1 -19 -7 -17
-19 6 -29 15 -38 33 -31 18 7 17 5 -12 -17 -13 -10 -17 -10 -12 -2 4 6 3 12
-2 12 -6 0 -13 -7 -16 -16 -3 -8 -2 -12 4 -9 6 3 10 1 10 -5 0 -6 6 -8 13 -4
6 4 9 4 5 -1 -4 -4 0 -14 10 -22 15 -13 15 -13 -4 -4 -12 6 -25 7 -29 3 -5 -4
-4 0 0 8 8 13 7 13 -8 1 -18 -14 -24 -26 -8 -17 5 3 8 -5 8 -19 0 -14 -4 -22
-10 -18 -6 3 -7 1 -3 -5 4 -7 1 -12 -6 -12 -10 0 -9 -3 2 -9 15 -10 33 -5 26
8 -3 3 4 7 15 7 19 0 19 -1 3 -13 -10 -7 -15 -16 -11 -19 4 -4 15 -1 24 7 16
12 17 12 6 -2 -7 -9 -9 -19 -5 -24 4 -4 -3 -3 -15 4 -28 14 -55 15 -33 1 13
-9 13 -10 0 -10 -13 0 -13 -1 0 -10 14 -9 13 -11 -9 -14 -5 0 -13 -5 -18 -10
-4 -5 -3 -6 4 -2 13 7 26 -9 30 -37 2 -12 -1 -16 -9 -11 -8 5 -7 0 2 -11 13
-17 13 -18 0 -13 -11 4 -16 0 -16 -13 0 -13 4 -15 12 -8 8 7 14 6 19 -1 3 -5
2 -10 -3 -10 -6 0 -13 -7 -16 -16 -3 -8 -2 -12 4 -9 6 3 10 -3 10 -14 0 -11 9
-22 20 -26 17 -6 18 -8 6 -21 -16 -15 -30 -19 -22 -6 7 12 -12 38 -21 29 -4
-5 -3 -11 3 -15 16 -11 18 -163 2 -173 -10 -7 -10 -9 0 -9 6 0 12 -5 12 -11 0
-5 -5 -7 -12 -3 -7 4 -8 3 -4 -4 4 -7 1 -12 -6 -12 -10 0 -10 -2 1 -9 8 -5 23
-8 34 -6 15 3 16 1 8 -9 -9 -10 -8 -15 4 -20 9 -3 14 -10 11 -15 -4 -5 -3 -11
1 -14 5 -2 2 -2 -4 -1 -7 2 -13 -1 -13 -6 0 -6 -4 -10 -8 -10 -5 0 -9 7 -9 15
0 8 4 12 8 9 4 -2 10 0 13 5 3 5 -1 12 -10 15 -8 3 -12 10 -9 16 4 6 -1 7 -11
3 -11 -4 -13 -8 -6 -11 7 -2 12 -8 12 -13 0 -6 -6 -7 -12 -3 -8 5 -7 0 2 -11
14 -17 13 -18 -2 -12 -10 3 -20 1 -24 -5 -4 -6 -3 -8 3 -5 6 4 19 0 29 -8 10
-8 14 -15 8 -15 -7 0 -15 -7 -18 -16 -4 -9 -2 -13 5 -8 7 4 10 1 7 -7 -3 -8
-10 -13 -16 -12 -6 2 -9 -4 -6 -12 4 -8 9 -15 13 -15 4 0 8 -7 8 -15 0 -8 -5
-15 -10 -15 -5 0 -5 -6 2 -13 7 -10 7 -17 0 -24 -8 -8 -8 -17 0 -31 9 -17 10
-43 1 -72 -1 -3 -5 4 -10 15 -7 16 -9 17 -9 3 -1 -9 3 -19 8 -23 5 -3 8 -17 5
-30 -5 -26 9 -34 22 -13 5 7 3 8 -6 3 -10 -6 -11 -4 -4 6 5 8 9 26 9 42 0 15
3 27 8 27 28 0 30 -2 14 -11 -14 -8 -15 -14 -7 -24 8 -10 8 -15 0 -20 -8 -5
-6 -14 7 -28 10 -11 13 -17 6 -14 -6 4 -14 3 -18 -2 -3 -6 -13 -8 -23 -5 -13
5 -14 4 -3 -4 7 -5 9 -12 5 -14 -5 -3 -2 -3 6 -1 39 11 46 10 46 -8 0 -10 -6
-21 -12 -23 -8 -3 -10 3 -6 16 3 15 1 19 -7 14 -6 -4 -8 -12 -5 -18 5 -7 1 -9
-9 -5 -9 3 -19 1 -23 -5 -4 -6 -3 -8 2 -5 6 3 16 2 24 -4 10 -6 11 -9 3 -9 -7
0 -13 -5 -13 -11 0 -8 5 -8 15 1 12 10 18 10 33 -1 15 -12 16 -12 5 1 -10 13
-8 18 10 30 20 12 21 12 8 -3 -9 -12 -10 -17 -2 -17 7 0 9 -5 5 -12 -5 -7 -3
-8 7 -2 8 4 24 8 36 9 12 0 24 3 27 6 4 3 -9 5 -29 4 -19 -2 -32 1 -30 6 3 4
13 5 22 2 12 -5 14 -3 8 8 -8 12 -6 12 8 0 11 -9 17 -10 17 -2 0 6 8 3 18 -7
11 -9 17 -21 14 -26 -3 -5 0 -6 7 -2 9 6 8 13 -6 28 -18 20 -18 20 14 2 17
-10 30 -21 28 -25 -2 -3 3 -6 11 -6 10 0 8 7 -8 25 l-23 25 27 -17 c18 -12 27
-14 30 -5 4 11 22 15 85 18 l32 1 1 513 c0 281 3 526 5 542 8 45 64 155 80
155 7 0 17 9 20 21 4 13 12 18 21 15 9 -3 12 -1 9 4 -3 6 1 10 10 10 9 0 14 4
10 9 -4 8 16 19 48 27 4 1 8 2 10 4 9 7 36 6 31 -1 -3 -5 -10 -6 -16 -3 -6 4
-8 2 -5 -4 8 -11 47 -5 47 8 0 4 7 11 16 14 14 5 15 4 4 -9 -11 -13 -9 -15 14
-13 14 1 26 6 26 10 0 5 11 1 25 -8 14 -9 23 -19 21 -23 -2 -3 2 -14 9 -24 11
-16 13 -16 19 -2 3 9 2 13 -4 10 -6 -3 -10 -1 -10 4 0 6 5 11 11 11 5 0 7 6 3
13 -4 7 -3 9 2 4 5 -5 9 -12 9 -15 1 -22 17 -32 38 -21 21 10 21 9 3 -5 -14
-12 -23 -13 -33 -5 -24 21 -13 2 22 -36 19 -21 31 -43 28 -49 -3 -6 -3 -8 2
-4 4 4 17 3 29 -3 20 -10 20 -10 2 5 -14 11 -15 16 -6 16 9 0 7 5 -5 14 -11 8
-23 12 -27 10 -5 -3 -8 0 -8 5 0 15 19 14 35 -3 8 -7 26 -12 40 -11 20 3 24 0
16 -9 -6 -7 -7 -17 -3 -21 4 -5 1 -5 -6 -1 -7 4 -10 12 -7 17 4 5 2 9 -3 9
-18 0 -21 -14 -7 -30 14 -16 14 -19 0 -34 -12 -12 -13 -16 -3 -16 10 0 9 -3
-2 -11 -13 -9 -13 -10 0 -6 8 2 14 10 12 16 -1 6 3 11 9 11 6 0 9 -6 6 -14 -3
-8 1 -20 9 -26 16 -14 19 -50 3 -50 -5 0 -8 4 -5 9 10 16 -5 40 -25 38 -10 -1
-19 -5 -19 -10 0 -4 7 -7 16 -5 10 2 19 -3 22 -11 2 -8 0 -11 -5 -8 -5 3 -10
0 -10 -8 0 -8 3 -14 6 -13 19 2 24 -4 11 -12 -13 -8 -12 -10 3 -10 9 0 17 5
17 11 0 5 4 8 9 5 5 -4 12 0 14 6 4 10 6 10 6 0 1 -7 -6 -15 -14 -18 -8 -4
-12 -11 -8 -17 3 -6 1 -7 -5 -3 -7 4 -12 1 -12 -9 0 -9 4 -13 10 -10 6 3 7 -1
4 -9 -3 -9 -1 -17 5 -17 26 -3 30 -4 36 -11 4 -4 -4 -5 -18 -3 -15 3 -30 -1
-38 -11 -12 -15 -11 -16 10 -9 17 5 22 4 19 -6 -3 -8 -13 -13 -22 -13 -9 1
-16 -2 -16 -8 0 -5 -5 -6 -12 -2 -7 4 -8 3 -4 -5 4 -6 11 -9 16 -6 4 3 19 0
32 -5 23 -10 23 -10 1 -6 -13 2 -26 0 -29 -5 -5 -8 10 -13 29 -10 5 1 5 -4 1
-11 -13 -20 -15 -50 -4 -43 5 3 10 1 10 -5 0 -7 -8 -9 -20 -5 -16 5 -19 3 -13
-12 6 -16 5 -17 -13 -3 -18 14 -18 14 -1 -6 21 -25 21 -29 2 -48 -9 -9 -11
-17 -5 -21 5 -3 10 -1 10 5 0 6 4 8 10 5 5 -3 7 0 4 8 -5 15 22 44 33 33 3 -3
1 -6 -6 -6 -7 0 -9 -5 -5 -12 4 -7 3 -8 -4 -4 -13 8 -11 -14 3 -47 4 -10 2
-24 -5 -32 -7 -9 -10 -19 -6 -22 4 -4 11 -1 16 7 7 11 10 11 10 2 0 -7 -7 -15
-15 -18 -8 -4 -12 -11 -8 -17 3 -6 1 -7 -5 -3 -8 5 -12 -1 -12 -15 0 -19 -2
-20 -17 -8 -17 13 -17 12 -3 -5 14 -17 15 -17 37 8 13 15 23 24 23 20 0 -4 -7
-16 -17 -26 -9 -10 -13 -21 -9 -25 4 -4 11 -1 16 7 6 10 10 11 10 3 0 -7 -10
-17 -21 -24 -17 -9 -20 -8 -14 3 5 7 5 10 0 6 -4 -4 -15 -2 -24 5 -14 10 -14
10 -3 -5 7 -9 9 -18 5 -20 -4 -3 -2 -3 5 -2 6 2 12 -1 12 -7 0 -6 5 -7 10 -4
5 3 10 1 10 -5 0 -7 -7 -10 -15 -6 -8 3 -15 1 -15 -5 0 -6 -6 -7 -12 -3 -7 4
-10 3 -5 -1 4 -5 15 -10 25 -11 33 -5 51 -10 58 -17 8 -7 -31 -1 -45 8 -5 3
-12 1 -15 -4 -4 -5 3 -12 14 -16 23 -7 27 -22 5 -22 -8 0 -12 4 -10 8 7 10
-22 5 -32 -6 -4 -4 -2 -5 5 -1 6 4 12 2 12 -3 0 -6 7 -11 16 -11 8 0 13 -4 9
-9 -3 -5 0 -11 7 -14 16 -5 -12 -1 -32 5 -8 3 -11 3 -7 0 4 -2 2 -11 -5 -20
-11 -15 -11 -15 4 -4 11 9 18 10 23 2 3 -6 12 -7 18 -3 8 5 8 2 0 -9 -7 -8
-10 -18 -6 -21 3 -4 1 -7 -6 -7 -8 0 -11 7 -7 15 3 8 1 15 -4 15 -6 0 -10 -9
-10 -21 0 -13 -4 -18 -12 -13 -6 4 -8 3 -5 -3 4 -6 18 -9 32 -8 14 2 25 -1 25
-7 0 -6 -6 -8 -14 -5 -27 11 -26 -7 1 -25 16 -10 22 -18 15 -18 -7 0 -10 -5
-6 -12 5 -7 3 -8 -6 -3 -10 6 -12 4 -7 -8 4 -11 2 -14 -9 -10 -10 4 -12 0 -7
-13 6 -17 5 -18 -12 -4 -18 14 -18 14 -3 -9 9 -13 14 -31 10 -40 -5 -14 -4
-14 11 -2 18 14 24 36 7 26 -6 -3 -7 1 -4 10 5 12 10 13 18 5 7 -7 7 -16 -2
-31 -8 -12 -11 -24 -7 -27 3 -4 10 0 15 8 7 11 10 11 10 2 0 -7 -7 -15 -15
-18 -8 -4 -12 -11 -8 -17 3 -6 1 -7 -5 -3 -8 5 -12 -1 -12 -15 0 -19 -2 -20
-17 -8 -16 13 -17 12 -4 -4 11 -13 17 -15 28 -6 7 7 16 9 20 5 3 -3 1 -6 -5
-6 -7 0 -12 -5 -12 -11 0 -5 4 -8 9 -4 6 3 8 -4 6 -15 -4 -20 0 -26 40 -56 20
-15 20 -15 -1 -5 -22 11 -34 6 -34 -13 0 -6 5 -4 10 4 8 12 10 12 10 1 0 -8 3
-11 7 -8 3 4 12 2 19 -4 10 -8 12 -6 9 9 -2 12 4 27 13 34 15 12 16 11 3 -4
-9 -13 -10 -18 -2 -18 7 0 9 -5 5 -12 -5 -7 -3 -8 6 -3 8 5 34 10 58 12 41 3
43 2 31 -14 -12 -16 -12 -17 2 -5 9 7 25 10 35 7 11 -4 7 1 -8 10 -16 8 -28
21 -27 28 0 9 2 8 6 -1 4 -10 8 -10 19 -1 12 10 13 9 8 -5 -4 -11 -1 -16 10
-16 9 0 16 -5 16 -12 0 -6 3 -8 6 -5 4 4 1 13 -6 22 -7 8 -11 15 -9 16 24 5
60 9 87 9 l32 1 1 514 c1 283 2 518 3 523 1 4 5 25 10 47 14 68 50 126 114
180 23 19 23 19 16 -1 -6 -14 -1 -12 19 8 15 16 32 25 40 22 8 -3 18 0 22 5 3
6 11 9 16 5 5 -3 17 0 26 8 14 11 16 11 8 -2 -5 -8 -10 -22 -12 -30 -1 -11 2
-10 12 3 9 13 15 15 20 6 4 -6 1 -16 -6 -21 -12 -8 -11 -9 1 -5 8 2 15 12 15
22 0 10 7 20 15 22 12 4 12 3 1 -5 -9 -7 -10 -12 -2 -16 6 -4 9 -11 6 -16 -3
-5 3 -7 14 -5 11 2 25 -3 31 -10 12 -15 40 -10 40 7 0 7 -5 7 -13 0 -10 -8
-16 -6 -25 9 -7 10 -8 19 -3 19 5 0 11 -6 14 -12 3 -10 8 -9 22 2 10 8 16 10
12 4 -3 -6 0 -20 8 -30 12 -17 12 -21 -7 -35 -16 -12 -18 -18 -8 -24 8 -5 11
-4 7 2 -4 6 5 15 19 22 31 14 45 14 22 0 -10 -5 -18 -15 -18 -21 0 -9 3 -9 12
0 18 18 32 14 17 -5 -12 -15 -12 -16 4 -10 10 4 16 3 12 -2 -3 -5 -1 -11 4
-13 4 -1 12 -14 16 -27 5 -18 4 -22 -6 -17 -8 4 -6 1 3 -7 13 -11 15 -16 5
-26 -9 -9 -7 -13 11 -18 13 -3 21 -11 18 -18 -5 -15 10 -40 25 -40 7 0 14 -6
17 -12 2 -7 -1 -13 -8 -13 -6 0 -8 5 -4 12 4 6 3 8 -3 5 -14 -9 -9 -63 5 -60
7 2 12 -2 12 -8 0 -5 4 -8 8 -5 10 6 9 -30 -1 -40 -4 -4 -2 -13 3 -19 7 -8 4
-17 -9 -29 -19 -17 -19 -17 -16 1 2 10 4 19 5 21 2 1 3 5 4 10 1 4 5 13 9 20
5 7 4 12 -3 12 -6 0 -8 5 -5 10 3 6 1 10 -4 10 -12 0 -13 -5 -13 -58 -1 -26
-4 -32 -17 -27 -13 5 -13 4 -4 -6 7 -7 23 -13 35 -14 17 -1 23 -8 23 -26 1
-13 5 -31 10 -39 6 -11 3 -10 -12 3 -11 9 -23 14 -28 10 -4 -5 -5 -2 -1 5 4 7
12 9 18 6 6 -4 9 -1 6 6 -5 16 -45 23 -53 10 -3 -6 1 -7 10 -4 11 5 16 2 15
-7 -4 -27 0 -39 12 -36 7 1 12 -10 13 -28 0 -16 3 -35 7 -40 18 -29 -10 -93
-34 -79 -4 3 -8 0 -8 -5 0 -16 22 -13 50 6 23 15 24 16 12 0 -8 -9 -22 -19
-32 -22 -12 -4 -17 -12 -13 -22 4 -10 2 -14 -4 -10 -7 4 -10 0 -8 -10 1 -10
-2 -23 -7 -30 -6 -7 -5 -19 1 -32 7 -12 7 -22 2 -26 -6 -3 -9 -14 -8 -25 1
-14 4 -16 14 -8 10 8 17 6 27 -8 20 -27 7 -50 -26 -45 -5 0 -8 -3 -8 -9 0 -13
16 -13 43 1 21 10 21 10 3 -5 -11 -9 -24 -16 -30 -16 -5 0 -6 -3 -3 -6 3 -4 2
-14 -3 -23 -9 -18 1 -43 16 -42 5 1 9 -11 9 -26 0 -16 3 -32 6 -38 4 -5 6 -23
5 -40 -1 -16 3 -37 9 -45 6 -10 3 -9 -11 3 -11 9 -24 14 -29 10 -4 -5 -5 -2
-1 5 4 7 12 10 17 7 5 -4 9 1 9 9 0 9 -6 15 -12 14 -7 -2 -12 3 -10 10 1 6 -2
12 -7 12 -5 0 -7 -15 -5 -32 1 -18 3 -36 3 -41 1 -4 6 -6 13 -5 7 2 12 -9 13
-27 0 -16 4 -36 9 -43 5 -9 2 -20 -9 -30 -10 -10 -15 -11 -11 -4 4 6 2 12 -3
12 -14 0 -14 -17 -1 -25 6 -4 18 -1 27 7 11 8 14 8 10 1 -12 -19 25 -34 43
-18 14 12 16 12 16 -4 0 -11 -6 -17 -13 -14 -7 3 -13 -1 -13 -8 0 -7 3 -9 7
-6 3 4 12 2 19 -4 10 -8 12 -6 9 9 -2 12 4 27 13 34 15 12 16 11 3 -4 -9 -13
-10 -18 -2 -18 7 0 9 -5 5 -12 -5 -7 -3 -8 7 -2 23 14 63 11 82 -5 16 -13 18
-13 15 -1 -2 8 3 14 10 12 6 -1 12 3 12 9 0 6 -7 9 -15 5 -8 -3 -15 -1 -15 4
0 6 8 10 18 11 26 1 85 8 107 13 20 5 20 13 19 523 0 285 -4 540 -8 566 -31
216 -213 439 -414 506 -155 52 -341 42 -482 -27 -30 -14 -61 -32 -68 -39 -16
-15 -36 -17 -27 -3 10 16 -1 11 -16 -7 -12 -15 -12 -16 1 -8 8 4 -1 -8 -20
-28 -26 -26 -38 -33 -48 -25 -9 8 -11 7 -6 -6 9 -24 2 -21 -67 35 -105 84
-206 127 -319 136 -36 2 -69 5 -75 6 -5 1 -28 1 -50 -1z m180 -351 c3 -5 2
-12 -3 -15 -5 -3 -9 1 -9 9 0 17 3 19 12 6z m835 -1 c0 -5 -2 -10 -4 -10 -3 0
-8 5 -11 10 -3 6 -1 10 4 10 6 0 11 -4 11 -10z m110 -16 c0 -8 -19 -13 -24 -6
-3 5 1 9 9 9 8 0 15 -2 15 -3z m-910 -39 c0 -7 -30 -13 -34 -7 -3 4 4 9 15 9
10 1 19 0 19 -2z m-781 -31 c4 3 8 -1 8 -9 0 -11 -4 -12 -14 -4 -7 6 -13 17
-12 23 0 7 2 6 6 -2 2 -6 8 -10 12 -8z m1758 1 c4 -4 3 -5 -4 -2 -6 4 -13 2
-15 -5 -3 -8 -6 -6 -10 4 -7 17 15 19 29 3z m10 -40 c0 -6 -6 -12 -12 -12 -6
0 -12 6 -12 12 0 6 6 12 12 12 6 0 12 -6 12 -12z m-897 -30 c5 3 11 1 14 -4 4
-5 -2 -8 -11 -7 -9 2 -18 8 -19 15 -1 6 0 7 3 1 2 -5 9 -8 13 -5z m920 -8 c0
-5 -6 -7 -13 -4 -8 3 -14 -1 -14 -8 0 -7 5 -12 11 -11 6 2 8 1 3 -1 -4 -3 -5
-8 -2 -13 3 -4 -4 -6 -16 -3 -13 4 -17 9 -10 16 5 5 7 15 4 23 -3 8 3 12 16
11 12 -1 21 -5 21 -10z m-916 -33 c3 -8 2 -12 -4 -9 -6 3 -10 10 -10 16 0 14
7 11 14 -7z m922 -34 c0 -20 -7 -25 -19 -13 -4 3 -2 12 4 20 15 17 15 17 15
-7z m-1811 -10 c3 -5 1 -10 -4 -10 -6 0 -11 5 -11 10 0 6 2 10 4 10 3 0 8 -4
11 -10z m1855 -16 c0 -8 -19 -13 -24 -6 -3 5 1 9 9 9 8 0 15 -2 15 -3z m-1895
-44 c-3 -5 -1 -10 5 -10 6 0 8 -5 4 -11 -4 -8 -9 -7 -15 2 -7 12 -3 29 7 29 3
0 2 -4 -1 -10z m1898 -20 c3 -11 2 -18 -3 -15 -4 3 -10 14 -13 25 -3 11 -2 18
3 15 4 -3 10 -14 13 -25z m-33 11 c0 -6 -4 -12 -8 -15 -5 -3 -9 1 -9 9 0 8 4
15 9 15 4 0 8 -4 8 -9z m-1860 -96 c0 -8 -5 -15 -11 -15 -5 0 -7 -5 -3 -12 4
-7 3 -8 -5 -4 -8 6 -9 12 -2 20 6 7 8 16 4 19 -3 4 -1 7 5 7 7 0 12 -7 12 -15z
m35 -24 c3 -5 2 -12 -3 -15 -5 -3 -9 1 -9 9 0 17 3 19 12 6z m-25 -36 c7 -8 9
-15 4 -15 -5 0 -2 -5 6 -11 13 -9 12 -10 -2 -5 -10 3 -18 1 -18 -4 0 -6 -4
-10 -8 -10 -5 0 -9 7 -9 14 0 8 3 15 6 14 20 -2 22 4 5 17 -10 8 -14 15 -8 15
6 0 17 -7 24 -15z m7 -67 c2 -17 0 -19 -7 -8 -5 8 -6 18 -4 22 8 12 10 10 11
-14z m-14 -28 c3 -11 3 -20 1 -20 -2 0 -8 9 -14 20 -6 11 -7 20 -2 20 6 0 12
-9 15 -20z m1897 -14 c0 -3 -4 -8 -10 -11 -5 -3 -10 -1 -10 4 0 6 5 11 10 11
6 0 10 -2 10 -4z m-1878 -63 c-10 -4 -10 -8 0 -21 10 -14 10 -15 -2 -4 -21 18
-34 15 -19 -5 13 -17 12 -17 -4 -4 -18 14 -18 16 -1 28 10 7 23 13 28 12 6 0
5 -3 -2 -6z m-5 -77 c0 -8 -6 -12 -15 -9 -11 5 -11 7 0 14 7 5 13 9 14 9 0 0
1 -6 1 -14z m1857 2 c-5 -8 -1 -9 12 -4 14 5 16 4 7 -5 -13 -13 -37 -3 -28 12
4 5 8 9 11 9 3 0 2 -5 -2 -12z m-1 -66 c-3 -7 -12 -11 -19 -8 -8 3 -11 0 -7
-9 4 -12 9 -12 26 -3 15 8 13 3 -8 -19 -17 -17 -32 -29 -34 -27 -3 3 0 9 7 16
8 8 8 17 1 30 -11 21 -1 48 11 28 5 -9 9 -9 14 -1 4 6 0 14 -8 17 -9 3 -13 10
-10 16 8 13 33 -23 27 -40z m-1858 28 c-3 -5 -12 -10 -18 -10 -7 0 -6 4 3 10
19 12 23 12 15 0z m-20 -30 c-3 -5 -2 -10 4 -10 15 0 2 -27 -16 -34 -13 -5
-13 -4 -4 8 6 8 11 18 10 22 -2 14 0 24 7 24 3 0 2 -4 -1 -10z m958 -15 c4 -8
3 -16 -1 -19 -4 -3 -9 4 -9 15 -2 23 3 25 10 4z m-926 -47 c-3 -8 -6 -5 -6 6
-1 11 2 17 5 13 3 -3 4 -12 1 -19z m1847 10 c-5 -8 -1 -9 12 -4 14 5 16 4 7
-5 -13 -13 -37 -3 -28 12 4 5 8 9 11 9 3 0 2 -5 -2 -12z m-1857 -100 c2 -17 0
-19 -7 -8 -5 8 -6 18 -4 22 8 12 10 10 11 -14z m-13 -24 c5 -14 4 -15 -9 -4
-17 14 -19 20 -6 20 5 0 12 -7 15 -16z m1872 -6 c-1 -13 3 -30 8 -38 7 -10 4
-9 -10 3 -11 9 -24 14 -29 10 -4 -5 -5 -2 -1 5 4 7 12 9 18 6 7 -5 9 -2 5 8
-3 9 -3 19 0 22 10 9 10 8 9 -16z m-1879 -38 c-3 -11 2 -21 10 -24 8 -3 12
-10 9 -15 -4 -5 -3 -11 1 -14 5 -2 3 -3 -2 -2 -13 3 -36 -21 -28 -29 4 -3 1
-6 -5 -6 -13 0 -16 13 -5 23 10 11 12 77 1 77 -5 0 -6 5 -3 10 10 16 27 0 22
-20z m1903 -54 c0 -3 -4 -8 -10 -11 -5 -3 -10 -1 -10 4 0 6 5 11 10 11 6 0 10
-2 10 -4z m-1883 -38 c2 -17 0 -19 -7 -8 -5 8 -6 18 -4 22 8 12 10 10 11 -14z
m-17 -18 c0 -5 -2 -10 -4 -10 -3 0 -8 5 -11 10 -3 6 -1 10 4 10 6 0 11 -4 11
-10z m33 -85 c-3 -9 -8 -14 -10 -11 -3 3 -2 9 2 15 9 16 15 13 8 -4z m921 -1
c3 -8 2 -12 -4 -9 -6 3 -10 10 -10 16 0 14 7 11 14 -7z m126 -95 c0 7 5 9 11
6 6 -4 8 -9 5 -13 -9 -9 -76 -10 -71 -1 3 4 13 5 22 2 12 -5 14 -3 8 8 -8 12
-6 12 8 0 12 -9 17 -10 17 -2z m960 0 c0 6 5 11 12 11 6 0 8 -3 5 -7 -4 -3 -1
-13 6 -22 10 -13 10 -14 -3 -5 -8 6 -29 10 -47 9 -18 -1 -30 2 -27 6 2 4 12 5
21 2 12 -5 14 -3 8 8 -8 12 -6 12 8 0 11 -9 17 -10 17 -2z"/>
<path d="M180 759 c0 -5 5 -7 10 -4 6 3 10 8 10 11 0 2 -4 4 -10 4 -5 0 -10
-5 -10 -11z"/>
<path d="M465 2060 c-3 -6 1 -7 9 -4 18 7 21 14 7 14 -6 0 -13 -4 -16 -10z"/>
<path d="M370 1979 c0 -5 5 -7 10 -4 6 3 10 8 10 11 0 2 -4 4 -10 4 -5 0 -10
-5 -10 -11z"/>
<path d="M310 1901 c0 -6 4 -13 10 -16 6 -3 7 1 4 9 -7 18 -14 21 -14 7z"/>
<path d="M255 1840 c-3 -5 -1 -10 4 -10 6 0 11 5 11 10 0 6 -2 10 -4 10 -3 0
-8 -4 -11 -10z"/>
<path d="M1689 1802 c-13 -15 -12 -16 3 -4 14 11 17 10 21 -5 4 -16 5 -16 6
-1 2 25 -15 30 -30 10z"/>
<path d="M730 1798 c0 -4 4 -8 9 -8 6 0 12 4 15 8 3 5 -1 9 -9 9 -8 0 -15 -4
-15 -9z"/>
<path d="M795 1794 c-20 -16 -19 -16 4 -9 18 5 22 4 16 -5 -5 -8 -4 -11 3 -6
6 4 9 13 5 21 -6 18 -3 18 -28 -1z"/>
<path d="M846 1795 c-9 -26 -7 -32 5 -12 6 10 9 21 6 23 -2 3 -7 -2 -11 -11z"/>
<path d="M873 1795 c0 -8 3 -13 5 -10 3 3 10 -2 16 -11 10 -13 12 -13 12 5 0
11 -4 17 -8 15 -4 -3 -8 0 -8 5 0 6 -4 11 -8 11 -5 0 -9 -7 -9 -15z"/>
<path d="M244 1792 c3 -5 0 -13 -6 -15 -9 -4 -10 -6 -1 -6 17 -1 25 16 12 25
-7 4 -9 3 -5 -4z"/>
<path d="M1654 1778 c-4 -7 -4 -10 1 -6 4 4 15 2 24 -5 14 -11 14 -10 2 6 -16
20 -18 21 -27 5z"/>
<path d="M195 1761 c-3 -5 -2 -12 3 -15 5 -3 9 1 9 9 0 17 -3 19 -12 6z"/>
<path d="M1815 1760 c3 -5 8 -10 11 -10 2 0 4 5 4 10 0 6 -5 10 -11 10 -5 0
-7 -4 -4 -10z"/>
<path d="M1866 1755 c-11 -8 -15 -15 -9 -15 7 0 15 5 18 10 4 6 11 7 17 4 7
-4 8 -2 4 4 -9 14 -7 15 -30 -3z"/>
<path d="M950 1736 c0 -2 8 -10 18 -17 15 -13 16 -12 3 4 -13 16 -21 21 -21
13z"/>
<path d="M187 1678 c-5 -19 -8 -20 -24 -8 -15 12 -16 12 -6 0 7 -7 23 -15 35
-17 16 -2 19 0 10 6 -11 6 -10 9 3 15 9 3 13 10 10 16 -10 16 -22 11 -28 -12z"/>
<path d="M1946 1663 c-6 -14 -5 -15 5 -6 7 7 10 15 7 18 -3 3 -9 -2 -12 -12z"/>
<path d="M1033 1643 c0 -8 6 -9 19 -2 10 5 18 11 18 12 0 2 -8 3 -18 3 -10 0
-19 -6 -19 -13z"/>
<path d="M1995 1520 c-3 -5 -1 -10 4 -10 6 0 11 5 11 10 0 6 -2 10 -4 10 -3 0
-8 -4 -11 -10z"/>
<path d="M135 1489 c-4 -6 -5 -12 -2 -15 2 -3 7 2 10 11 7 17 1 20 -8 4z"/>
<path d="M1085 1469 c4 -6 -1 -16 -10 -23 -16 -11 -16 -13 -1 -13 9 0 16 4 16
9 0 5 5 6 11 2 8 -4 8 0 0 15 -7 11 -14 21 -17 21 -3 0 -2 -5 1 -11z"/>
<path d="M1990 1476 c0 -2 8 -10 18 -17 15 -13 16 -12 3 4 -13 16 -21 21 -21
13z"/>
<path d="M1074 1328 c-3 -5 -2 -8 3 -7 22 4 25 -3 7 -17 -18 -15 -18 -15 0 -6
23 12 30 39 9 39 -7 0 -16 -4 -19 -9z"/>
<path d="M2035 1260 c-4 -6 -10 -8 -15 -5 -10 6 -8 -15 3 -32 4 -6 4 -13 0
-16 -5 -2 -2 -2 5 -1 6 2 12 0 13 -4 0 -4 2 -15 4 -24 2 -10 -1 -20 -5 -23 -5
-3 -7 4 -5 15 2 11 -1 20 -7 20 -5 0 -8 -6 -5 -14 3 -7 0 -19 -6 -26 -9 -10
-9 -11 1 -6 6 4 12 2 12 -5 0 -9 3 -9 14 0 15 13 18 48 6 66 -4 6 -6 22 -5 38
2 29 0 33 -10 17z m2 -25 c0 -8 -4 -12 -9 -9 -5 3 -6 10 -3 15 9 13 12 11 12
-6z"/>
<path d="M1084 1167 c-10 -12 -12 -16 -4 -9 18 16 38 16 22 0 -17 -17 -15 -33
3 -18 8 7 15 18 15 26 0 23 -17 24 -36 1z"/>
<path d="M140 1126 c0 -8 4 -17 9 -20 5 -4 7 3 4 14 -6 23 -13 26 -13 6z"/>
<path d="M1078 1118 c5 -5 16 -8 23 -6 8 3 3 7 -10 11 -17 4 -21 3 -13 -5z"/>
<path d="M2019 913 c-10 -11 -10 -14 -1 -9 7 4 12 2 12 -5 0 -8 4 -8 15 1 14
12 12 30 -4 30 -5 0 -15 -8 -22 -17z"/>
<path d="M2035 780 c-4 -6 -10 -8 -15 -5 -10 6 -8 -15 3 -32 4 -6 4 -13 0 -16
-5 -2 -2 -2 5 -1 11 3 17 -9 12 -31 -1 -5 4 -5 11 2 8 8 9 16 2 25 -5 7 -9 25
-8 41 2 29 0 33 -10 17z m2 -25 c0 -8 -4 -12 -9 -9 -5 3 -6 10 -3 15 9 13 12
11 12 -6z"/>
<path d="M1074 769 c-3 -5 -2 -9 3 -8 22 4 25 -3 7 -17 -18 -15 -18 -16 4 -3
13 8 24 18 25 23 3 12 -31 17 -39 5z"/>
<path d="M1078 638 c5 -5 16 -8 23 -6 8 3 3 7 -10 11 -17 4 -21 3 -13 -5z"/>
<path d="M2035 620 c-4 -6 -10 -8 -15 -5 -10 6 -8 -15 3 -32 5 -8 3 -13 -5
-13 -7 -1 -2 -7 12 -15 28 -15 38 -12 23 7 -5 7 -9 25 -8 41 2 29 0 33 -10 17z
m2 -25 c0 -8 -4 -12 -9 -9 -5 3 -6 10 -3 15 9 13 12 11 12 -6z"/>
<path d="M1070 565 c0 -4 10 -15 23 -26 18 -16 19 -18 3 -12 -13 4 -17 3 -12
-5 4 -7 15 -12 24 -12 15 0 15 -2 2 -11 -13 -9 -13 -10 0 -6 8 2 13 11 11 18
-2 8 -4 21 -6 29 -1 8 -6 15 -11 15 -5 0 -15 4 -21 8 -7 5 -13 5 -13 2z"/>
<path d="M430 488 c-10 -21 -10 -21 3 -6 8 10 18 14 22 10 5 -4 5 -1 1 6 -10
17 -14 15 -26 -10z"/>
<path d="M473 495 c0 -8 4 -12 9 -9 5 3 6 10 3 15 -9 13 -12 11 -12 -6z"/>
<path d="M1385 500 c-3 -6 1 -7 9 -4 18 7 21 14 7 14 -6 0 -13 -4 -16 -10z"/>
<path d="M2050 500 c-11 -7 -12 -10 -2 -10 7 0 11 -4 8 -8 -3 -5 1 -9 8 -9 8
0 13 6 12 13 -3 20 -10 24 -26 14z"/>
<path d="M2304 490 c0 -13 4 -16 10 -10 7 7 7 13 0 20 -6 6 -10 3 -10 -10z"/>
<path d="M2335 500 c-3 -5 -1 -10 4 -10 6 0 11 5 11 10 0 6 -2 10 -4 10 -3 0
-8 -4 -11 -10z"/>
</g>
</svg>
